<?xml version="1.0" encoding="utf-8"?>
<!-- Generator: Adobe Illustrator 16.0.0, SVG Export Plug-In . SVG Version: 6.00 Build 0)  -->
<!DOCTYPE svg PUBLIC "-//W3C//DTD SVG 1.1//EN" "http://www.w3.org/Graphics/SVG/1.1/DTD/svg11.dtd">
<svg version="1.1"
	 id="svg869" xmlns:dc="http://purl.org/dc/elements/1.1/" xmlns:cc="http://creativecommons.org/ns#" xmlns:rdf="http://www.w3.org/1999/02/22-rdf-syntax-ns#" xmlns:svg="http://www.w3.org/2000/svg" xmlns:sodipodi="http://sodipodi.sourceforge.net/DTD/sodipodi-0.dtd" xmlns:inkscape="http://www.inkscape.org/namespaces/inkscape" inkscape:version="0.92.4 (5da689c313, 2019-01-14)" sodipodi:docname="afa-manager.svg"
	 xmlns="http://www.w3.org/2000/svg" xmlns:xlink="http://www.w3.org/1999/xlink" x="0px" y="0px" width="665px" height="555px"
	 viewBox="232.76 42.353 665 555" enable-background="new 232.76 42.353 665 555" xml:space="preserve">
<sodipodi:namedview  inkscape:cy="637.2838" inkscape:cx="469.92108" inkscape:zoom="0.2598453" showguides="true" showgrid="false" guidetolerance="10" gridtolerance="10" objecttolerance="10" borderopacity="1" pagecolor="#ffffff" bordercolor="#666666" id="namedview871" inkscape:current-layer="g877" inkscape:window-maximized="1" inkscape:window-y="27" inkscape:window-x="1366" inkscape:guide-bbox="true" inkscape:window-height="1016" inkscape:window-width="1920" inkscape:pageshadow="2" inkscape:pageopacity="0">
	<sodipodi:guide  inkscape:locked="false" orientation="0,1" position="416.59403,73.120429" id="guide964"></sodipodi:guide>
</sodipodi:namedview>
<g id="g877" transform="matrix(1.3333333,0,0,-1.3333333,0,793.70665)" inkscape:label="logo-afa" inkscape:groupmode="layer">
	<g id="g879" transform="translate(124.11759,-126.2403)" inkscape:export-ydpi="100" inkscape:export-xdpi="100">
		<g>
			<defs>
				<rect id="SVGID_1_" x="-27.837" y="213.289" width="654.306" height="535.265"/>
			</defs>
			<clipPath id="SVGID_2_">
				<use xlink:href="#SVGID_1_"  overflow="visible"/>
			</clipPath>
			<g id="g881" clip-path="url(#SVGID_2_)">
				<g id="g887" transform="translate(248.2837,283.3555)">
					<path id="path889" inkscape:connector-curvature="0" fill="#A9A9A9" d="M150.964,398.283
						c-4.886-0.084-10.087-1.518-15.538-4.746c-20.882,9.654-25.163-25.352-25.163-36.46c2.005-1.806,4.953-5.314,4.953-7.85
						c-27.568-16.531-46.566-40.8-62.224-66.504c-8.161,0.963-38.807,55.888-38.807,64.339
						c-4.953,12.071-84.169-25.594-93.664-28.131c-7.228,0-29.573,19.199-34.395,24.753c-14.857,1.445-34.926,24.741-34.926,39.107
						l-5.083,2.657v3.258l-3.88,1.453l-1.472-2.896l-2.276-0.482l-2.405-2.777l-2.808,3.259c-8.031,0-12.58-5.795-20.209-8.572v4.1
						l5.624,3.5l3.478,5.191l-2.276,1.333l-5.08-3.388l-6.968-9.292l0.942-2.046l2.136-0.853
						c7.499-16.049,46.976-34.033,50.585-49.613c22.617-24.501,41.353-52.992,65.432-75.207
						c23.418-13.885,33.054-55.045,61.956-63.618c0-3.137-2.277-4.219-4.542-6.275c-20.611,2.056-16.601-2.546-32.791-6.637
						c-18.467,9.896-37.062,17.385-57.132,17.385c-11.78,6.395-16.192-10.748-34.396-10.748
						c-15.248-17.504-22.607-20.881-26.757-43.578c-7.899-17.504,5.213-25.834,5.213-40.32l3.749-2.536
						c17.664,7.006,45.094-20.402,64.632-21.495c6.026,0,33.583,2.666,33.583-5.423c12.311-5.434,81.231-18.104,94.475-7.488
						l3.207-0.612c1.485-5.904,5.224-10.246,5.224-16.292H40.28c-0.803-5.672-4.551-9.412-11.238-10.506l-1.604-4.088
						c1.734-2.175,1.333-3.749,3.87-6.045c-4.011,0.972-9.765,1.705-14.045,2.065l4.28,2.648l2.276,3.375
						c-9.765,6.037-115.477,5.205-129.392,4.704l-0.803-2.527c2.806-2.297,29.833-8.199,27.428-15.579
						c3.618-1.924,7.629,0.602,19.399-5.304C-47.77,7.599-3.337,20.28,14.858,3.99C12.582,1.814,3.75,1.213,0,1.213V0
						c2.275-0.963,12.983-1.323,26.767-1.323c26.897,0,65.702,2.284,75.207,7.358c1.463-2.647,16.991,0.721,20.73,1.332l0.943,4.702
						c9.504,3.149,15.258,4.951,26.626,5.443l-4.28,2.647h-6.026c0,2.777,5.355,4.471,1.343,6.045l3.078,1.915
						c12.041,4.241,67.97,3.388,75.998,0.492c9.636,4.831,33.466,3.497,46.034,3.497c12.984,0,25.696,0.12,29.977,0.12l-2.407,3.992
						l-2.817,2.767l-5.473,1.332l1.731,5.435c-1.611,2.406-6.823,6.889-9.23,9.173c3.209,2.165,8.963,2.886,12.971,4.23
						c3.748,42.606-23.007,101.271-44.82,138.214c1.334,17.381-21.946,27.647-9.507,48.409
						c-4.679,10.137-11.908,35.369-15.256,46.235c-1.604,22.086-12.842,63.739-36.923,71.228V374.7
						C177.442,386.655,165.621,398.537,150.964,398.283z M181.852,356.595l8.43-2.054c6.026-22.326,22.345-34.637,22.345-60.482
						c7.901-18.706,13.255-27.636,13.255-48.999l0.669-2.78c-6.695-0.972-10.845-2.415-17.662-0.611l-1.604,4.11l3.067,6.637
						c-3.339,6.035-0.532,13.282-1.463,19.559l5.213,7.358c-2.407,2.175-4.151,5.916-6.817,8.694
						c0.661,5.913-0.142,6.405-2.005,11.347l-3.218,0.611c-2.005-7.369-5.353-13.163-10.305-19.317h-3.75l-0.801,3.378l-8.161-3.378
						l-3.609-9.415l2.005-0.602c0-4.952-3.891-6.645-5.754-11.477c-6.426-1.925-16.461-5.063-20.883-9.535
						c-10.567-2.897-21.806-2.897-33.583-1.805v1.805c-6.686,1.333-10.175,2.777-14.184,6.166l3.749,10.135v2.657
						c-2.547,0-4.813-3.389-6.296-7.129c-1.866-5.071-2.938-11.587-2.676-14.363h-5.886l1.474-4.825l4.412,0.602v-2.536l4.562-2.656
						l2.808,0.602c4.679-8.452,19.397-13.635,27.025-20.041c-3.478-6.397-31.98-29.213-40.28-29.454l-4.409-2.897
						c-19.138,0-12.843,36.461-24.623,46.355c-3.347,15.217-4.551,27.53-4.28,36.341c0.801,29.573,32.25,61.683,59.938,76.531
						c0-20.644,40.28-44.18,54.606-57.101l7.348,1.333c0.541,8.69-28.23,57.1-3.067,57.1L181.852,356.595z M199.776,261.229
						c3.489-4.34,0.141-7.841,4.021-12.794c-9.905-25.111-10.036-62.172-38.937-74.363c-20.741-2.776-12.181-11.589-10.307-25.113
						c-7.627-12.791-5.884-38.504-20.068-45.501l-1.745,0.599v12.19l3.088,1.937c1.463,11.348,8.962,13.401,2.937,26.194h3.208
						l3.609,0.722c0.541,2.897,0.942,7.117-2.136,8.811c-3.609,21.243-24.893,20.883-41.071,29.454
						c12.17,17.634,38.534,23.058,49.772,42.255c12.712,3.499,23.821,19.318,29.704,30.174h2.416l2.938,3.87h8.3L199.776,261.229z
						 M65.303,178.664c-2.265-5.805-2.667-7.731-6.828-12.923h-1.474l-2.937-2.527c2.807-9.424,4.813-16.551-2.275-24.882
						c2.937-5.543,14.856-28.732,12.439-32.231l3.88-3.379l0.812-4.689l-3.618-3.278l-4.682,1.334l2.016-5.435l5.473-2.657
						l-1.604-4.712h-2.276l1.074,3.388l-6.555,0.724c1.471-2.167,1.601-4.351,3.207-6.768l-2.937-6.756l-10.034-6.747l-10.578,4.091
						h-2.947c1.203-2.539,1.343-2.288,1.343-5.436c-18.064-9.883-69.453,0.973-88.318,4.833c8.16,4.842,0.269,23.66-0.933,30.788
						l6.016,6.034v5.443l23.817-13.534l2.276-4.109c12.181-3.369,25.022,1.332,37.332,2.175c-4.149,4.35-5.482,12.801-6.955,18.836
						c2.676,2.777,5.482,4.952,8.169,7.368C19.409,143.896,37.332,178.664,65.303,178.664z M163.386,110.214
						c4.019,0,44.7-43.347,49.241-49.143c14.988,0,7.761-17.613,31.188-10.605l7.479,0.602c0-5.564-1.062-8.101-1.062-13.534
						c-34.926,11.848-52.321,6.886-88.19,0.119L129,31.99l-15.387,2.285C122.704,60.24,147.196,86.545,163.386,110.214z"/>
				</g>
			</g>
		</g>
	</g>
</g>
</svg>
