<?xml version="1.0" encoding="UTF-8" standalone="no"?>

<svg xmlns="http://www.w3.org/2000/svg"
	version="1.1"
	id="svg869"
	xml:space="preserve"
	width="1122.52"
	height="793.70667"
viewBox="0 0 1122.52 793.70665">
	<g id="g877" transform="matrix(1.3333333,0,0,-1.3333333,0,793.70665)">
		<g id="g879" transform="translate(124.11759,-126.2403)" style="fill:#a9a9a9;fill-opacity:1">
			<g id="g887" transform="translate(248.2837,283.3555)" style="fill:#a9a9a9;fill-opacity:1">
				<path
					style="fill:#a9a9a9;fill-opacity:1;fill-rule:nonzero;stroke:none;stroke-width:1.33333325"
					d="m 729.62109,49.492188 c -6.51443,0.112874 -13.44879,2.023791 -20.71679,6.328124 -27.84267,-12.871999 -33.55078,33.802631 -33.55078,48.613278 2.67466,2.408 6.60351,7.08547 6.60351,10.4668 -36.756,22.04133 -62.08751,54.39988 -82.96484,88.67188 -10.88,-1.284 -51.74219,-74.51716 -51.74219,-85.78516 -6.604,-16.09467 -112.22477,34.12648 -124.88477,37.50781 -9.63733,0 -39.43004,-25.59857 -45.85937,-33.0039 C 356.69653,120.36435 329.9375,89.303104 329.9375,70.148438 l -6.77734,-3.542969 v -4.34375 l -5.17383,-1.9375 -1.96289,3.861328 -3.03516,0.642578 -3.20703,3.703125 -3.74414,-4.345703 c -10.708,0 -16.77331,7.727021 -26.94531,11.429687 v -5.466796 l 7.49804,-4.666016 4.63672,-6.921875 -3.03515,-1.777344 -6.77344,4.517578 -9.29102,12.388672 1.25586,2.728516 2.84766,1.136719 c 9.99867,21.398666 62.63526,45.378392 67.44726,66.150392 30.156,32.668 55.13686,70.65672 87.24219,100.27539 31.224,18.51333 44.07142,73.39355 82.60742,84.82422 0,4.18266 -3.0353,5.62581 -6.05664,8.36719 -27.48133,-2.74138 -22.13403,3.39494 -43.7207,8.8496 -24.62133,-13.19466 -49.41578,-23.17968 -76.17578,-23.17968 -15.70667,-8.52667 -21.58933,14.33008 -45.86133,14.33008 -20.33067,23.33866 -30.14245,27.84084 -35.67578,58.10351 -10.532,23.33867 6.95117,34.4451 6.95117,53.75977 l 4.99805,3.38086 c 23.552,-9.34134 60.12511,27.20282 86.17578,28.66015 8.03467,0 44.77734,-3.55486 44.77734,7.23047 16.41467,7.24533 108.30813,24.13904 125.9668,9.98438 l 4.27539,0.8164 c 1.98,7.872 6.96484,13.66132 6.96484,21.72266 h -4.10351 c -1.06933,7.56266 -6.06838,12.54914 -14.98438,14.00781 l -2.13867,5.45117 c 2.312,2.9 1.77749,4.99788 5.16016,8.06055 -5.34667,-1.296 -13.0199,-2.27391 -18.72656,-2.75391 l 5.70703,-3.53125 3.03515,-4.5 c -13.01866,-8.04933 -153.96948,-6.93948 -172.52148,-6.27148 l -1.07031,3.36914 c 3.74133,3.06267 39.77698,10.93282 36.57031,20.77148 4.824,2.56534 10.1719,-0.8024 25.86523,7.07227 15.704,7.89733 74.94703,-9.00968 99.20703,12.70898 -3.03333,2.90134 -14.81054,3.70313 -19.81054,3.70313 v 1.61719 c 3.03333,1.284 17.31078,1.76367 35.68945,1.76367 35.86267,0 87.60339,-3.04522 100.27539,-9.81055 1.952,3.52933 22.65529,-0.96072 27.64063,-1.77539 l 1.25781,-6.26953 c 12.672,-4.19867 20.34462,-6.60181 35.50195,-7.25781 l -5.70703,-3.5293 h -8.03516 c 0,-3.70267 7.14035,-5.96055 1.79102,-8.06055 l 4.10352,-2.55273 c 16.05466,-5.65467 90.62607,-4.51758 101.33007,-0.65625 12.84934,-6.44133 44.62158,-4.66211 61.37891,-4.66211 17.31333,0 34.26208,-0.16016 39.96875,-0.16016 l -3.20898,-5.32226 -3.75586,-3.68946 -7.29688,-1.77539 2.30859,-7.24609 c -2.14666,-3.208 -9.09597,-9.18514 -12.30664,-12.23047 4.27867,-2.88667 11.95093,-3.84862 17.29493,-5.64062 4.99733,-56.808 -30.67577,-135.02783 -59.75977,-184.28516 1.77867,-23.17467 -29.26111,-36.86359 -12.67578,-64.54492 -6.23733,-13.516 -15.8778,-47.15849 -20.3418,-61.64649 -2.13866,-29.448 -17.12113,-84.98537 -49.23047,-94.970699 V 80.935547 c -9.633,-15.939 -25.39418,-31.781988 -44.9375,-31.443359 z m 41.1836,55.583982 11.24023,2.73828 c 8.03467,29.768 29.79297,46.18258 29.79297,80.64258 10.536,24.94133 17.67383,36.84803 17.67383,65.33203 l 0.89258,3.70703 c -8.92667,1.296 -14.4595,3.21979 -23.54883,0.81446 l -2.13867,-5.48047 4.08984,-8.84961 c -4.452,-8.04667 -0.7085,-17.71013 -1.95117,-26.07813 l 6.95117,-9.81054 c -3.20933,-2.9 -5.53384,-7.8878 -9.08984,-11.5918 0.88133,-7.884 -0.1885,-8.53957 -2.67383,-15.12891 l -4.29102,-0.81445 c -2.67333,9.82533 -7.13756,17.55053 -13.74023,25.75586 h -5 l -1.06836,-4.50391 -10.88086,4.50391 -4.8125,12.55273 2.67383,0.80274 c 0,6.60267 -5.18788,8.86007 -7.67188,15.30273 -8.568,2.56667 -21.94775,6.75156 -27.84375,12.71289 -14.088,3.86267 -29.07334,3.86225 -44.77734,2.40625 v -2.40625 c -8.91467,-1.77733 -13.56544,-3.70337 -18.91211,-8.2207 l 4.99805,-13.51367 v -3.54297 c -3.39467,0 -6.4172,4.51919 -8.39453,9.50586 -2.488,6.76133 -3.9177,15.44906 -3.56836,19.15039 h -7.84766 l 1.96484,6.43359 5.88282,-0.80273 v 3.38086 l 6.08203,3.54101 3.74414,-0.80273 c 6.24,11.26933 25.86253,18.1807 36.0332,26.7207 -4.63733,8.52934 -42.64036,38.95149 -53.70703,39.27149 l -5.87891,3.86328 c -25.51733,0 -17.12341,-48.61464 -32.83007,-61.80664 -4.46267,-20.28933 -6.06837,-36.70708 -5.70704,-48.45508 1.06934,-39.43067 43.00064,-82.24368 79.91797,-102.04102 0,27.52534 53.70726,58.90677 72.8086,76.13477 l 9.79687,-1.77734 c 0.72134,-11.58667 -37.63917,-76.13282 -4.08984,-76.13282 z m 23.89843,127.1543 c 4.65202,5.78667 0.18933,10.45459 5.36133,17.05859 -13.20666,33.48133 -13.38135,82.89573 -51.91601,99.15039 -27.65467,3.70134 -16.24086,15.45238 -13.74219,33.48438 -10.16933,17.05466 -7.84448,51.33863 -26.75781,60.66797 l -2.32617,-0.79883 v -16.25391 l 4.11718,-2.58203 c 1.952,-15.13067 11.94935,-17.86845 3.91602,-34.92578 h 4.27734 l 4.8125,-0.96289 c 0.72134,-3.86267 1.25635,-9.48938 -2.84765,-11.74805 -4.812,-28.324 -33.18972,-27.84348 -54.76172,-39.27148 16.22666,-23.512 51.37928,-30.74385 66.36328,-56.33985 16.94933,-4.66533 31.76147,-25.75642 39.60547,-40.23242 h 3.2207 l 3.91797,-5.16015 h 11.06641 z M 615.40625,342.31641 c -3.02,7.74 -3.55552,10.30777 -9.10352,17.23047 h -1.96484 l -3.91601,3.36914 c 3.74399,12.56533 6.41746,22.06778 -3.03321,33.17578 3.916,7.39066 19.80861,38.30927 16.58594,42.97461 l 5.17383,4.50586 1.08203,6.25195 -4.82422,4.37109 -6.24219,-1.77929 2.6875,7.24609 7.29688,3.54297 -2.13867,6.2832 h -3.03516 l 1.43164,-4.51758 -8.74023,-0.96484 c 1.96266,2.88933 2.13539,5.80077 4.27539,9.02344 l -3.91602,9.00781 -13.37891,8.99609 -14.10351,-5.45508 h -3.92969 c 1.604,3.38537 1.79102,3.05072 1.79102,7.24805 -24.08534,13.17733 -92.60315,-1.29802 -117.75782,-6.44336 10.88,-6.456 0.35853,-31.54678 -1.24414,-41.05078 l 8.02149,-8.04492 v -7.25781 l 31.75586,18.04492 3.03515,5.47851 c 16.24134,4.492 33.36339,-1.77639 49.77539,-2.90039 -5.532,-5.8 -7.30943,-17.06856 -9.27343,-25.11523 3.568,-3.70267 7.30988,-6.60289 10.89258,-9.82422 1.60533,-27.03867 25.50354,-73.39648 62.79687,-73.39648 z m 130.77734,91.26757 c 5.35867,0 59.60097,57.79544 65.6543,65.52344 19.98533,0 10.34798,23.48463 41.58399,14.14063 l 9.97265,-0.80274 c 0,7.41867 -1.41601,10.80092 -1.41601,18.04492 -46.568,-15.79733 -69.76061,-9.1822 -117.58594,-0.1582 l -44.05664,7.55078 -20.51563,-3.04687 c 12.12134,-34.62 44.77662,-69.69329 66.36328,-101.25196 z"
					id="path889"
				transform="matrix(0.75000002,0,0,-0.75000002,-396.25225,435.40171)" />
			</g>
		</g>
		<g id="g891" transform="translate(152.05044,-111.23154)">
			<g id="g899" transform="translate(377.2832,315.3447)" />
			<g id="g903" transform="translate(377.2832,315.3447)" />
			<g id="g907" transform="translate(196.7656,353.9707)" />
			<g id="g911" transform="translate(196.7656,353.9707)" />
			<g id="g915" transform="translate(381.0225,387.4131)" />
			<g id="g919" transform="translate(381.0225,387.4131)" />
			<g id="g923" transform="translate(335.8018,469.2568)" />
			<g id="g927" transform="translate(335.8018,469.2568)" />
			<g id="g931" transform="translate(489.0127,483.3813)" />
			<g id="g935" transform="translate(489.0127,483.3813)" />
			<g id="g939" transform="translate(478.3066,509.3364)" />
			<g id="g943" transform="translate(87.7354,296.0469)">
				<path
					d="m 0,0 h 1.353 c 0,-8.742 -7.86,-15.85 -17.574,-15.85 -9.704,0 -17.553,7.108 -17.563,15.85 0,8.762 7.859,15.859 17.563,15.859 C -6.507,15.859 1.353,8.762 1.353,0 H -1.354 C -1.375,7.418 -8.01,13.414 -16.221,13.423 -24.421,13.414 -31.067,7.418 -31.078,0 c 0.011,-7.397 6.657,-13.393 14.857,-13.403 8.211,0.01 14.846,6.006 14.867,13.403 H 0"
					style="fill:#080809;fill-opacity:1;fill-rule:nonzero;stroke:none"
				id="path945" />
			</g>
			<g id="g947" transform="translate(75.6445,298.542)">
				<path
					d="m 0,0 c -0.281,0.925 -0.832,2.666 -3.789,2.666 -1.724,0 -4.24,-1.031 -4.24,-5.402 0,-2.766 1.213,-5.263 4.24,-5.263 1.975,0 3.358,1.012 3.789,2.907 h 3.579 c -0.722,-3.357 -3.148,-5.703 -7.437,-5.703 -4.553,0 -7.821,2.775 -7.821,8.109 0,5.403 3.459,8.152 7.86,8.152 5.132,0 7.208,-3.191 7.398,-5.466"
					style="fill:#080809;fill-opacity:1;fill-rule:nonzero;stroke:none"
				id="path949" />
			</g>
		</g>
		<g transform="scale(0.6945111,-1.4398618)" 
			style="font-style:normal;font-variant:normal;font-weight:normal;font-stretch:normal;font-size:124.28030396px;line-height:1.25;font-family:sans-serif;-inkscape-font-specification:'sans-serif, Normal';font-variant-ligatures:normal;font-variant-caps:normal;font-variant-numeric:normal;font-feature-settings:normal;text-align:start;letter-spacing:0px;word-spacing:0px;writing-mode:lr-tb;text-anchor:start;fill:#ff0000;fill-opacity:1;stroke:none;stroke-width:2.32572055"
		id="text958">
			<path
				d="m 200.58698,-38.271389 17.15068,-13.795114 h 50.95493 l 6.08973,13.795114 h 19.88485 l -25.47746,-60.275947 h -14.29224 l -74.19534,60.275947 z m 54.80761,-44.119508 6.71114,15.162197 h -25.72602 z"
				style="font-style:normal;font-variant:normal;font-weight:normal;font-stretch:normal;font-family:'911 Porscha Bold Italic';-inkscape-font-specification:'911 Porscha Bold Italic, ';fill:#ff0000;fill-opacity:1;stroke-width:2.32572055"
			id="path5413" />
			<path
				d="m 318.57365,-38.271389 9.07246,-22.370455 h 94.57731 l 6.3383,-15.659318 h -94.57731 l 2.60989,-6.711136 h 94.57731 l 6.33829,-15.535038 H 326.90043 l -24.35894,60.275947 z"
				style="font-style:normal;font-variant:normal;font-weight:normal;font-stretch:normal;font-family:'911 Porscha Bold Italic';-inkscape-font-specification:'911 Porscha Bold Italic, ';fill:#ff0000;fill-opacity:1;stroke-width:2.32572055"
			id="path5415" />
			<path
				d="m 432.23769,-38.271389 17.15068,-13.795114 h 50.95493 l 6.08973,13.795114 h 19.88485 l -25.47746,-60.275947 h -14.29224 l -74.19534,60.275947 z m 54.80761,-44.119508 6.71114,15.162197 h -25.72602 z"
				style="font-style:normal;font-variant:normal;font-weight:normal;font-stretch:normal;font-family:'911 Porscha Bold Italic';-inkscape-font-specification:'911 Porscha Bold Italic, ';fill:#ff0000;fill-opacity:1;stroke-width:2.32572055"
			id="path5417" />
		</g>
		<g transform="scale(1,-1)"
			style="font-style:normal;font-variant:normal;font-weight:normal;font-stretch:normal;font-size:103.82888031px;line-height:1.25;font-family:sans-serif;-inkscape-font-specification:'sans-serif, Normal';font-variant-ligatures:normal;font-variant-caps:normal;font-variant-numeric:normal;font-feature-settings:normal;text-align:start;letter-spacing:0px;word-spacing:0px;writing-mode:lr-tb;text-anchor:start;fill:#88880d;fill-opacity:1;stroke:none;stroke-width:1.9430027"
		id="text962">
			<path
				d="m 391.28213,-73.273431 c 0,0 9.13694,-0.207658 9.13694,-0.207658 0.93446,0 1.76509,0 4.46464,0.207658 1.45361,-2.388065 3.01104,-4.568471 4.6723,-6.54122 0,0 -9.44843,-0.103829 -9.44843,-0.103829 -1.4536,0 -2.38806,0 -4.77612,0.103829 -1.45361,1.453604 -3.2187,3.73784 -4.98379,6.54122 z"
				style="font-style:normal;font-variant:normal;font-weight:normal;font-stretch:normal;font-family:'URW Chancery L';-inkscape-font-specification:'URW Chancery L';fill:#88880d;fill-opacity:1;stroke-width:1.9430027"
			id="path5396" />
			<path
				d="m 424.33054,-57.076126 6.64505,-25.230418 c 6.95653,-4.6723 11.21352,-7.164193 12.56329,-7.164193 0.83063,0 1.34978,0.93446 1.34978,2.284236 0,3.114866 -3.9455,18.896856 -8.30631,32.913755 l 7.89099,-2.80338 6.43739,-25.95722 c 6.02208,-3.841669 11.62884,-6.956535 12.87478,-6.956535 0.83063,0 1.34978,0.726802 1.34978,1.972749 0,2.284235 -0.93446,6.541219 -3.73784,17.650909 -1.66126,6.437391 -2.18041,9.033113 -2.18041,11.421177 0,2.180407 0.62298,3.322524 2.4919,4.6723 6.1259,-3.011038 11.31734,-6.333562 17.65091,-11.317348 v -2.388065 c -1.03829,0.519145 -2.18041,1.245947 -3.53019,2.180407 -3.73784,2.388064 -5.50293,3.218695 -6.74887,3.218695 -1.14212,0 -1.86892,-1.038289 -1.86892,-2.80338 0,-2.284235 1.34977,-8.202481 3.42635,-15.470503 3.11487,-10.694374 3.9455,-14.016899 3.9455,-15.574332 0,-1.038289 -0.62298,-1.557433 -1.66127,-1.557433 -1.86892,0 -8.30631,3.322524 -20.97343,10.798204 0.31149,-1.142118 0.41532,-1.972749 0.51915,-2.388065 1.24594,-5.191444 1.55743,-6.645048 1.55743,-7.268021 0,-0.726802 -0.51915,-1.142118 -1.34978,-1.142118 -1.55743,0 -6.95653,2.907209 -17.33942,9.552257 l -3.32252,2.076578 c 1.86892,-7.579509 2.28423,-9.448428 2.28423,-10.175231 0,-0.830631 -0.62297,-1.453604 -1.55743,-1.453604 -1.24595,0 -9.44843,4.464642 -16.19731,8.721626 l -0.7268,2.907209 c 5.71059,-2.80338 6.54122,-3.114867 7.68334,-3.114867 0.93446,0 1.55743,0.830631 1.55743,1.972749 0,1.661262 -3.73784,17.027936 -8.09865,33.225242 z"
				style="font-style:normal;font-variant:normal;font-weight:normal;font-stretch:normal;font-family:'URW Chancery L';-inkscape-font-specification:'URW Chancery L';fill:#88880d;fill-opacity:1;stroke-width:1.9430027"
			id="path5398" />
			<path
				d="m 522.77492,-68.80879 c -7.78717,5.191444 -9.3446,6.125904 -10.38289,6.125904 -0.7268,0 -1.24595,-0.830631 -1.24595,-2.076577 0,-2.699551 2.4919,-14.120728 6.22974,-27.929969 1.14211,-1.557433 1.34977,-1.86892 3.01103,-3.73784 -4.98378,-1.142117 -8.61779,-1.557433 -13.08244,-1.557433 -4.25698,0 -6.22973,0.415316 -8.92928,2.076578 -3.73784,2.180406 -8.09865,5.399101 -9.44843,6.852706 -3.84167,4.360813 -8.20248,18.377712 -8.20248,26.787851 0,4.983786 1.66126,8.30631 4.25699,8.30631 2.28423,0 5.71058,-2.076577 18.68919,-11.421177 -1.03828,4.776129 -1.55743,7.994824 -1.55743,9.240771 0,1.349775 0.62297,2.180406 1.66126,2.180406 1.24595,0 1.24595,0 9.55226,-5.295273 3.01104,-1.972748 5.3991,-3.63401 9.3446,-6.541219 z m -20.24663,0.622974 c -6.12591,4.464642 -9.24077,6.229733 -11.10969,6.229733 -1.66127,0 -2.69955,-1.86892 -2.69955,-5.191445 0,-5.191444 1.66126,-12.251807 4.25698,-18.170054 2.49189,-5.710588 4.77613,-7.890994 8.30631,-7.890994 1.86892,0 5.08761,0.519144 8.82545,1.349775 -2.07657,7.890995 -2.80338,10.279059 -2.9072,10.798204 -0.62298,2.595722 -1.14212,5.191444 -1.7651,7.890994 -0.10382,0.519145 -0.41531,1.765091 -0.93446,3.634011 z"
				style="font-style:normal;font-variant:normal;font-weight:normal;font-stretch:normal;font-family:'URW Chancery L';-inkscape-font-specification:'URW Chancery L';fill:#88880d;fill-opacity:1;stroke-width:1.9430027"
			id="path5400" />
			<path
				d="m 532.31906,-57.283784 6.1259,-24.399787 c 12.97861,-8.202481 13.2901,-8.30631 14.7437,-8.30631 0.72681,0 1.14212,0.519144 1.14212,1.349775 0,1.557433 -0.83063,5.502931 -3.84167,17.339423 -2.28423,9.240771 -2.69955,11.005862 -2.69955,12.97861 0,1.453605 0.41532,2.80338 1.55744,4.6723 4.77612,-2.180407 11.94032,-6.645048 19.20834,-12.04415 l 0.7268,-2.907209 c -10.38289,5.918246 -10.7982,6.125904 -11.83649,6.125904 -1.03829,0 -1.66126,-1.142118 -1.66126,-2.80338 0,-2.180406 0.7268,-5.606759 2.69955,-12.770952 4.87995,-17.443252 4.87995,-17.443252 4.87995,-18.170054 0,-1.142118 -0.7268,-1.765091 -2.07657,-1.765091 -1.55744,0 -3.84167,0.93446 -7.57951,3.322524 l -14.22456,8.825455 c 0.93446,-3.426353 2.49189,-9.967572 2.49189,-10.798204 0,-0.726802 -0.62297,-1.349775 -1.34977,-1.349775 -1.14212,0 -8.6178,3.841669 -16.30113,8.410139 l -0.62298,2.699551 c 6.64505,-3.011037 7.06037,-3.114866 7.99483,-3.114866 0.7268,0 1.24594,0.622973 1.24594,1.453604 0,2.180407 -1.97275,10.798204 -4.56847,20.246632 l -2.38806,8.410139 c -0.20766,0.726802 -0.72681,2.699551 -1.45361,5.60676 z"
				style="font-style:normal;font-variant:normal;font-weight:normal;font-stretch:normal;font-family:'URW Chancery L';-inkscape-font-specification:'URW Chancery L';fill:#88880d;fill-opacity:1;stroke-width:1.9430027"
			id="path5402" />
			<path
				d="m 614.23356,-68.80879 c -7.78717,5.191444 -9.3446,6.125904 -10.38289,6.125904 -0.7268,0 -1.24595,-0.830631 -1.24595,-2.076577 0,-2.699551 2.4919,-14.120728 6.22974,-27.929969 1.14211,-1.557433 1.34977,-1.86892 3.01103,-3.73784 -4.98378,-1.142117 -8.61779,-1.557433 -13.08243,-1.557433 -4.25699,0 -6.22974,0.415316 -8.92929,2.076578 -3.73784,2.180406 -8.09865,5.399101 -9.44843,6.852706 -3.84166,4.360813 -8.20248,18.377712 -8.20248,26.787851 0,4.983786 1.66126,8.30631 4.25699,8.30631 2.28423,0 5.71058,-2.076577 18.68919,-11.421177 -1.03828,4.776129 -1.55743,7.994824 -1.55743,9.240771 0,1.349775 0.62297,2.180406 1.66126,2.180406 1.24595,0 1.24595,0 9.55226,-5.295273 3.01104,-1.972748 5.3991,-3.63401 9.3446,-6.541219 z m -20.24663,0.622974 c -6.12591,4.464642 -9.24077,6.229733 -11.10969,6.229733 -1.66127,0 -2.69955,-1.86892 -2.69955,-5.191445 0,-5.191444 1.66126,-12.251807 4.25698,-18.170054 2.49189,-5.710588 4.77613,-7.890994 8.30631,-7.890994 1.86892,0 5.08762,0.519144 8.82546,1.349775 -2.07658,7.890995 -2.80338,10.279059 -2.90721,10.798204 -0.62298,2.595722 -1.14212,5.191444 -1.76509,7.890994 -0.10383,0.519145 -0.41532,1.765091 -0.93446,3.634011 z"
				style="font-style:normal;font-variant:normal;font-weight:normal;font-stretch:normal;font-family:'URW Chancery L';-inkscape-font-specification:'URW Chancery L';fill:#88880d;fill-opacity:1;stroke-width:1.9430027"
			id="path5404" />
			<path
				d="m 647.96984,-78.04956 c 0.41531,-2.284235 0.93446,-4.256984 1.34977,-5.918246 l 1.55744,-5.814417 c 0.20765,-0.93446 0.41531,-1.661263 0.51914,-2.284236 1.86892,-0.519144 1.97275,-0.519144 5.29527,-5.814417 -8.51397,0.207658 -10.90203,0.207658 -12.04415,0.207658 -6.33356,0.103829 -8.09865,0.415315 -11.21352,2.284235 -4.98378,3.114866 -8.51396,6.022075 -10.69437,8.825455 -3.11487,4.049326 -6.85271,16.612621 -6.85271,22.946182 0,2.595722 0.62298,4.464642 2.28424,6.748878 l -11.94032,10.279059 c -5.19145,4.568471 -7.57951,7.994824 -7.57951,10.902032 0,3.841669 4.56847,6.022075 12.45946,6.022075 9.55226,0 17.02794,-2.699551 23.98448,-8.721626 4.46464,-3.841668 5.50293,-6.022075 7.68333,-16.301134 z m -13.60159,28.449113 c -1.34977,6.229733 -2.28423,8.617797 -4.15315,10.590546 -2.28424,2.595722 -6.54122,3.945498 -12.66713,3.945498 -6.74887,0 -10.38288,-1.86892 -10.38288,-5.191445 0,-4.256984 2.80338,-6.852706 31.66781,-28.968257 z m 12.14798,-42.569841 h 3.32253 c -0.51915,0.415316 -1.14212,0.93446 -1.66127,1.245947 -3.32252,2.388064 -4.04932,3.322524 -4.98378,5.814417 -0.93446,3.011038 -2.07658,7.060364 -3.42635,12.147979 -2.07658,1.349776 -4.56848,3.218695 -13.2901,9.759915 -1.86892,-1.86892 -2.59572,-3.530182 -2.59572,-6.022075 0,-3.530182 2.49189,-12.563295 4.6723,-17.547081 2.07657,-4.256984 4.25698,-5.295273 11.83649,-5.295273 0.7268,0 1.97275,0 3.32252,-0.103829 z"
				style="font-style:normal;font-variant:normal;font-weight:normal;font-stretch:normal;font-family:'URW Chancery L';-inkscape-font-specification:'URW Chancery L';fill:#88880d;fill-opacity:1;stroke-width:1.9430027"
			id="path5406" />
			<path
				d="m 687.77684,-69.535592 c -7.78716,6.748877 -12.77095,9.656086 -16.71645,9.656086 -2.59572,0 -4.77612,-1.765091 -5.50293,-4.464642 -0.41531,-1.661262 -0.51914,-2.80338 -0.51914,-5.814417 4.6723,-2.907209 7.78716,-5.087615 13.91307,-9.656086 5.60676,-4.256984 7.78716,-7.683337 7.78716,-12.355637 0,-3.63401 -2.28423,-5.814417 -5.91824,-5.814417 -2.28424,0 -3.9455,0.519144 -6.33356,1.86892 -3.9455,2.284235 -7.47568,5.087615 -9.65609,7.579508 -3.9455,4.776129 -7.47568,16.197305 -7.47568,24.607445 0,6.125904 3.2187,9.967572 8.51397,9.967572 6.1259,0 13.70541,-4.360813 21.90789,-12.563294 z m -22.42703,-4.360813 c 1.76509,-11.10969 6.54121,-19.727487 11.00586,-19.727487 1.76509,0 2.90721,1.765091 2.90721,4.256984 0,5.191444 -2.80338,8.306311 -13.91307,15.470503 z"
				style="font-style:normal;font-variant:normal;font-weight:normal;font-stretch:normal;font-family:'URW Chancery L';-inkscape-font-specification:'URW Chancery L';fill:#88880d;fill-opacity:1;stroke-width:1.9430027"
			id="path5408" />
			<path
				d="m 692.95208,-54.272746 7.99483,-3.011038 7.78716,-29.591231 c 3.53018,-2.595722 5.91825,-3.634011 8.72163,-3.634011 2.28423,0 3.63401,0.830631 5.50293,3.218696 l 3.11486,-9.863744 c -1.97274,-0.622973 -2.80337,-0.830631 -3.84166,-0.830631 -1.86892,0 -4.04933,0.93446 -6.85271,2.907209 l -6.1259,4.464642 c 0.10383,-0.830632 0.31148,-1.349776 0.31148,-1.661263 0.83063,-3.426353 0.93446,-4.049326 0.93446,-4.56847 0,-0.622974 -0.62297,-1.142118 -1.34977,-1.142118 -1.34978,0 -10.48672,4.464642 -16.82028,8.30631 l -0.31149,2.80338 c 5.60676,-2.907208 6.22974,-3.114866 7.47568,-3.114866 1.34978,0 1.97275,0.726802 1.97275,2.180406 0,1.453605 -1.03829,6.333562 -2.28424,10.798204 z"
				style="font-style:normal;font-variant:normal;font-weight:normal;font-stretch:normal;font-family:'URW Chancery L';-inkscape-font-specification:'URW Chancery L';fill:#88880d;fill-opacity:1;stroke-width:1.9430027"
			id="path5410" />
		</g>
	</g>
</svg>